<svg width="360" height="140" viewBox="0 0 360 140" fill="none" xmlns="http://www.w3.org/2000/svg">
<rect width="360" height="140" rx="20" fill="url(#paint0_linear_111_52)" fill-opacity="0.4"/>
<rect x="220" width="140" height="140" rx="20" fill="#005DBA"/>
<path d="M269.12 64.824C261.099 60.5574 257.088 53.8587 257.088 44.728C257.088 40.12 258.283 35.9387 260.672 32.184C263.061 28.344 266.688 25.3147 271.552 23.096C276.416 20.792 282.389 19.64 289.472 19.64C296.555 19.64 302.485 20.792 307.264 23.096C312.128 25.3147 315.755 28.344 318.144 32.184C320.533 35.9387 321.728 40.12 321.728 44.728C321.728 49.336 320.619 53.3467 318.4 56.76C316.267 60.1734 313.365 62.8614 309.696 64.824C314.304 67.0427 317.845 70.1147 320.32 74.04C322.795 77.88 324.032 82.4027 324.032 87.608C324.032 93.6667 322.496 98.9147 319.424 103.352C316.352 107.704 312.171 111.032 306.88 113.336C301.675 115.64 295.872 116.792 289.472 116.792C283.072 116.792 277.227 115.64 271.936 113.336C266.731 111.032 262.592 107.704 259.52 103.352C256.448 98.9147 254.912 93.6667 254.912 87.608C254.912 82.3173 256.149 77.752 258.624 73.912C261.099 69.9867 264.597 66.9574 269.12 64.824ZM300.48 48.056C300.48 44.5574 299.456 41.8694 297.408 39.992C295.445 38.0294 292.8 37.048 289.472 37.048C286.144 37.048 283.456 38.0294 281.408 39.992C279.445 41.9547 278.464 44.6854 278.464 48.184C278.464 51.512 279.488 54.1574 281.536 56.12C283.584 57.9974 286.229 58.936 289.472 58.936C292.715 58.936 295.36 57.9547 297.408 55.992C299.456 54.0294 300.48 51.384 300.48 48.056ZM289.472 74.296C285.461 74.296 282.219 75.4054 279.744 77.624C277.269 79.7574 276.032 82.744 276.032 86.584C276.032 90.168 277.227 93.112 279.616 95.416C282.091 97.72 285.376 98.872 289.472 98.872C293.568 98.872 296.768 97.72 299.072 95.416C301.461 93.112 302.656 90.168 302.656 86.584C302.656 82.8294 301.419 79.8427 298.944 77.624C296.555 75.4054 293.397 74.296 289.472 74.296Z" fill="white"/>
<path d="M93.112 26V115.344H75.192V77.328H36.92V115.344H19V26H36.92V62.736H75.192V26H93.112Z" fill="white" fill-opacity="0.9"/>
<path d="M201.758 26V115.344H183.838V57.232L159.902 115.344H146.334L122.27 57.232V115.344H104.35V26H124.702L153.118 92.432L181.534 26H201.758Z" fill="white" fill-opacity="0.9"/>
<defs>
<linearGradient id="paint0_linear_111_52" x1="221.5" y1="70" x2="-3.31137e-08" y2="70" gradientUnits="userSpaceOnUse">
<stop stop-color="#005DBA"/>
<stop offset="0.675" stop-color="#909090"/>
</linearGradient>
</defs>
</svg>
